<?xml version="1.0" encoding="UTF-8"?>
<svg version="1.1" xmlns="http://www.w3.org/2000/svg" width="2000" height="851">
<path d="M0 0 C2.0791697 -0.00712535 4.15833749 -0.01482768 6.23750305 -0.02307129 C10.57334877 -0.03643049 14.90901267 -0.03812418 19.24487305 -0.03222656 C24.74009497 -0.02634487 30.23442905 -0.0569001 35.72947979 -0.09734344 C40.01866674 -0.12347756 44.30764729 -0.12607472 48.59690285 -0.12245178 C50.61985309 -0.12411972 52.64281539 -0.13353125 54.66568565 -0.15159607 C93.24153337 -0.45821258 128.64752994 16.79555298 159.17578125 39.46875 C159.82611328 39.95085937 160.47644531 40.43296875 161.14648438 40.9296875 C169.61589317 47.27079605 177.545681 54.1410489 185.17578125 61.46875 C185.82450195 62.08492188 186.47322266 62.70109375 187.14160156 63.3359375 C197.60363723 73.31735065 206.80547184 83.68022913 215.17578125 95.46875 C215.61438477 96.07332031 216.05298828 96.67789063 216.50488281 97.30078125 C227.20493189 112.11497045 235.59297851 128.5499884 242.11328125 145.59375 C242.45431885 146.47281006 242.79535645 147.35187012 243.14672852 148.25756836 C249.19560398 164.80542542 251.99140745 182.33808706 254.76812744 199.66644287 C267.5756258 279.06941054 287.70995688 357.4012369 308.98828125 434.90625 C309.17037266 435.56955826 309.35246407 436.23286652 309.54007339 436.91627502 C313.04817438 449.68869093 316.57196555 462.45610773 320.25390625 475.1796875 C320.47491501 475.9473494 320.69592377 476.71501129 320.92362976 477.50593567 C321.88043097 480.8280415 322.84753323 484.14538296 323.84106445 487.45678711 C327.03377933 498.43270507 327.12202087 506.9457303 322.17578125 517.46875 C312.70471769 532.24360915 293.16367638 534.71766602 277.23388672 538.34399414 C200.21695559 555.10588619 118.62928478 554.84280397 40.17578125 554.46875 C40.08278661 545.6277748 40.01186782 536.78696996 39.96853256 527.945611 C39.94772568 523.83945914 39.91953586 519.73364379 39.87402344 515.62768555 C39.83031717 511.65949163 39.80659235 507.69161984 39.79627228 503.72320366 C39.78892505 502.21503064 39.77457824 500.70687373 39.75286102 499.19883919 C39.61137688 488.95990103 40.10815745 480.23664926 47.39453125 472.40625 C47.99910156 471.75527344 48.60367187 471.10429688 49.2265625 470.43359375 C53.31593575 466.31143995 57.5784524 462.38973814 61.859375 458.46875 C73.487067 448.07741522 73.487067 448.07741522 78.41210938 433.80957031 C78.50545976 430.8968396 78.48752223 428.00715272 78.42578125 425.09375 C78.420625 424.09730469 78.41546875 423.10085938 78.41015625 422.07421875 C78.54724109 417.10883158 78.54724109 417.10883158 77.17578125 412.46875 C72.48059595 412.93995139 70.39597633 414.73339714 67.05078125 417.96875 C66.081655 418.88777176 65.11024038 419.80438556 64.13671875 420.71875 C63.64526367 421.18152344 63.15380859 421.64429688 62.64746094 422.12109375 C60.40589369 424.17375652 58.04589878 426.06722304 55.67578125 427.96875 C51.79632391 431.0944842 48.0858541 434.33868272 44.42578125 437.71875 C42.67753729 439.30402206 40.9277377 440.88758175 39.17578125 442.46875 C38.5621875 443.04367187 37.94859375 443.61859375 37.31640625 444.2109375 C33.13431985 447.7358389 29.22545328 448.34114136 23.9375 448.07421875 C18.92335515 446.97493664 15.82301259 443.92502682 12.17578125 440.46875 C10.55192973 439.00913795 8.92689052 437.55084634 7.30078125 436.09375 C6.46804688 435.33320312 5.6353125 434.57265625 4.77734375 433.7890625 C1.2572243 430.6494965 -2.40767334 427.70614064 -6.08203125 424.75 C-9.7149618 421.72773299 -13.13232059 418.49639772 -16.53515625 415.21875 C-19.04067353 413.30326921 -20.70166398 412.72628029 -23.82421875 412.46875 C-26.26560298 414.91013423 -25.10640852 421.13476533 -25.13671875 424.40625 C-25.16572266 425.41494141 -25.19472656 426.42363281 -25.22460938 427.46289062 C-25.30179658 436.68379241 -23.57823315 443.81673429 -17.21484375 450.69921875 C-15.84993637 452.03405633 -14.46942124 453.35311013 -13.07421875 454.65625 C-12.39617187 455.31560547 -11.718125 455.97496094 -11.01953125 456.65429688 C-6.97918148 460.55254309 -2.79430586 464.26315649 1.44384766 467.94360352 C3.39460013 469.66144263 5.2350105 471.4241105 6.98828125 473.34375 C7.53097656 473.91867187 8.07367188 474.49359375 8.6328125 475.0859375 C14.07193113 483.48558906 13.57402847 492.62117511 13.46875 502.22265625 C13.46314453 503.7343656 13.45887893 505.24608046 13.45588684 506.75779724 C13.4445128 510.70833777 13.41511126 514.65853967 13.3817749 518.60894775 C13.35091212 522.6513613 13.33734711 526.69383035 13.32226562 530.73632812 C13.2902331 538.64728963 13.23912872 546.55797752 13.17578125 554.46875 C-71.40959061 554.73021048 -165.42692442 554.56744639 -246.82421875 528.46875 C-247.49146973 528.26040527 -248.1587207 528.05206055 -248.84619141 527.83740234 C-258.02709733 524.91053236 -265.60487795 521.11248215 -270.26171875 512.34375 C-274.44308491 502.74686996 -272.62550629 494.78711866 -269.7578125 485.109375 C-269.10852714 482.85631711 -268.45994634 480.60305608 -267.81201172 478.34960938 C-267.47949402 477.20290771 -267.14697632 476.05620605 -266.80438232 474.87475586 C-265.29861085 469.6422961 -263.85798527 464.39255626 -262.421875 459.140625 C-262.13854309 458.10731552 -261.85521118 457.07400604 -261.56329346 456.00938416 C-238.18862844 370.69267271 -215.73449216 285.01002506 -200.98828125 197.7109375 C-192.18571054 145.61734721 -173.74698939 101.96103267 -136.82421875 63.46875 C-136.04175781 62.64503906 -135.25929687 61.82132812 -134.453125 60.97265625 C-128.95265822 55.31531341 -123.01872821 50.34702903 -116.82421875 45.46875 C-115.80199219 44.65277344 -114.77976563 43.83679688 -113.7265625 42.99609375 C-93.60426515 27.08687351 -70.96543622 14.50884831 -46.69921875 6.15625 C-46.04453613 5.92591064 -45.38985352 5.69557129 -44.71533203 5.45825195 C-29.95439633 0.60619528 -15.38300535 -0.00650363 0 0 Z M25.17578125 80.46875 C21.86616797 83.97893342 19.7516038 87.9009959 17.56640625 92.17578125 C17.0738459 93.13329536 17.0738459 93.13329536 16.57133484 94.1101532 C15.51672001 96.16413275 14.47057898 98.22226146 13.42578125 100.28125 C12.7066618 101.69281035 11.98734172 103.10426851 11.26782227 104.515625 C10.20494691 106.60129629 9.14281384 108.68732235 8.08351135 110.77481079 C6.20068346 114.48100856 4.28540231 118.16483844 2.3125 121.82421875 C1.92868164 122.54826904 1.54486328 123.27231934 1.14941406 124.01831055 C0.19805492 125.80917016 -0.76748056 127.59248001 -1.734375 129.375 C-3.08620806 133.2124616 -2.8353016 135.55428246 -1.82421875 139.46875 C2.32683708 146.14467484 16.55989324 158.06764911 24.0859375 159.9453125 C29.24706376 160.30125224 32.00731337 159.27505278 36.05078125 156.03125 C37.76691588 154.51922528 39.47483085 152.99783617 41.17578125 151.46875 C43.14962275 149.87878306 45.12876909 148.29537824 47.11328125 146.71875 C51.29458233 143.37370914 54.45192341 140.83508348 56.046875 135.62109375 C56.21269302 131.56608954 55.15890721 129.60856812 53.23828125 126.03125 C52.50479592 124.64084248 51.77176835 123.25019344 51.0390625 121.859375 C50.38478271 120.63637695 50.38478271 120.63637695 49.71728516 119.38867188 C47.84677623 115.84554759 46.03220694 112.27568818 44.21875 108.703125 C43.14767702 106.60021062 42.07573821 104.49774036 41.00338745 102.39547729 C40.28807848 100.99206504 39.57397637 99.58803697 38.8611145 98.18338013 C37.8414882 96.17787466 36.81425355 94.17643995 35.78515625 92.17578125 C35.18670898 91.0050708 34.58826172 89.83436035 33.97167969 88.62817383 C32.25020126 85.59967296 30.56600181 83.0038234 28.17578125 80.46875 C27.18578125 80.46875 26.19578125 80.46875 25.17578125 80.46875 Z M-38.82421875 154.46875 C-43.57928999 159.22382124 -42.0474145 167.26910647 -42.07421875 173.53125 C-42.09484375 174.70880859 -42.11546875 175.88636719 -42.13671875 177.09960938 C-42.17672232 186.13541595 -42.05935434 195.30702719 -35.75 202.359375 C-34.56637787 203.50113532 -33.36119413 204.62091667 -32.13671875 205.71875 C-31.50459473 206.3166333 -30.8724707 206.9145166 -30.22119141 207.53051758 C-28.44290076 209.20123374 -26.6414472 210.84060355 -24.82421875 212.46875 C-24.07269531 213.14808594 -23.32117188 213.82742188 -22.546875 214.52734375 C-21.33438719 215.59628121 -20.11194127 216.65404958 -18.87890625 217.69921875 C-16.13702455 220.06057314 -13.48377489 222.51576532 -10.82421875 224.96875 C-6.78378054 228.68718823 -2.72794473 232.38177639 1.43359375 235.96484375 C2.58838151 236.96168969 3.72939862 237.97473053 4.85546875 239.00390625 C7.9811539 241.79525194 8.79836875 242.46875 13.17578125 242.46875 C15.62114608 237.57802034 14.4886908 230.06934034 14.52587891 224.63183594 C14.5423478 222.87063296 14.56951642 221.10949427 14.60791016 219.34863281 C14.85816815 207.8019465 14.82184154 198.95304791 6.88671875 189.83984375 C5.73042969 188.88271484 5.73042969 188.88271484 4.55078125 187.90625 C3.23787109 186.79830078 3.23787109 186.79830078 1.8984375 185.66796875 C0.99996094 184.94222656 0.10148437 184.21648437 -0.82421875 183.46875 C-1.67113281 182.77394531 -2.51804687 182.07914063 -3.390625 181.36328125 C-5.17794856 179.90092561 -6.9698199 178.44411503 -8.765625 176.9921875 C-12.38445441 174.00653769 -15.91635828 170.93011386 -19.44921875 167.84375 C-28.17352678 158.86468663 -28.17352678 158.86468663 -38.82421875 154.46875 Z M86.87109375 155.91796875 C86.02289063 156.65660156 85.1746875 157.39523437 84.30078125 158.15625 C83.33398438 158.98511719 82.3671875 159.81398438 81.37109375 160.66796875 C80.85450195 161.12091309 80.33791016 161.57385742 79.80566406 162.04052734 C77.54035593 164.02555619 75.25021872 165.9810704 72.96166992 167.93920898 C71.76490891 168.96418612 70.56977279 169.99106335 69.3762207 171.01977539 C65.79343581 174.1049649 62.16737289 177.12318528 58.48828125 180.09375 C54.67476223 183.21236111 50.89210696 186.35962121 47.17578125 189.59375 C46.28890625 190.35945313 45.40203125 191.12515625 44.48828125 191.9140625 C39.21603619 197.73846836 38.74404108 203.38454319 38.8828125 210.90234375 C38.88705734 211.78028091 38.89130219 212.65821808 38.89567566 213.5627594 C38.91235835 216.3442458 38.9499904 219.12498564 38.98828125 221.90625 C39.00334157 223.80142177 39.01702761 225.69660498 39.02929688 227.59179688 C39.06222765 232.21773197 39.11393697 236.84311477 39.17578125 241.46875 C41.59095396 242.07979736 41.59095396 242.07979736 44.17578125 242.46875 C46.01437096 241.32044934 46.01437096 241.32044934 47.48828125 239.46875 C49.85135248 236.8926981 52.20504352 234.49093661 54.86328125 232.21875 C58.36292338 229.20158281 61.77835214 226.09995277 65.17578125 222.96875 C68.47591472 219.92970466 71.78527885 216.90718541 75.17578125 213.96875 C75.78808594 213.4325 76.40039062 212.89625 77.03125 212.34375 C78.22755289 211.29780212 79.4258059 210.25403578 80.63134766 209.21875 C82.26110125 207.81397923 83.8751486 206.3925569 85.48828125 204.96875 C86.00455078 204.52982422 86.52082031 204.09089844 87.05273438 203.63867188 C92.09660516 199.13829308 94.09813599 194.00839974 95.17578125 187.46875 C95.39344888 183.34586895 95.36090332 179.22183844 95.36328125 175.09375 C95.37552734 173.98257813 95.38777344 172.87140625 95.40039062 171.7265625 C95.41077546 165.91105524 95.17386777 160.94966718 93.17578125 155.46875 C90.34571653 154.24934424 89.53469954 154.24305731 86.87109375 155.91796875 Z M-38.82421875 236.46875 C-43.36337936 241.00791061 -42.05807526 249.52722221 -42.07421875 255.59375 C-42.10257998 272.05855297 -42.10257998 272.05855297 -33.75390625 285.6953125 C-31.28983683 287.95986213 -28.81052243 290.19089016 -26.2578125 292.35546875 C-23.04018679 295.14958674 -19.93696758 298.05883693 -16.82421875 300.96875 C-12.52864267 304.97625983 -8.22176775 308.9526758 -3.7578125 312.7734375 C-2.24292567 314.1016413 -0.76278012 315.46948812 0.703125 316.8515625 C2.01990234 318.08519531 2.01990234 318.08519531 3.36328125 319.34375 C4.56017578 320.48457031 4.56017578 320.48457031 5.78125 321.6484375 C8.34411191 323.59671425 9.9890219 324.2155705 13.17578125 324.46875 C16.08032397 321.56420728 14.49930942 310.96710364 14.52587891 306.8527832 C14.54233938 304.98774654 14.5694963 303.12277032 14.60791016 301.25805664 C15.14745287 285.4177104 15.14745287 285.4177104 7.75537109 271.86987305 C6.08902306 270.22175197 6.08902306 270.22175197 3.17578125 268.03125 C2.02171816 267.10859458 0.86808469 266.18540158 -0.28515625 265.26171875 C-0.87135742 264.80200684 -1.45755859 264.34229492 -2.06152344 263.86865234 C-4.91896159 261.59932404 -7.67773435 259.21657917 -10.44921875 256.84375 C-15.37714161 252.66189897 -20.35869302 248.55047461 -25.3828125 244.484375 C-27.56811566 242.68018871 -29.66508096 240.81147499 -31.76171875 238.90625 C-34.69348205 236.05358613 -34.69348205 236.05358613 -38.82421875 236.46875 Z M84.80078125 239.71875 C83.92550781 240.44707031 83.05023438 241.17539062 82.1484375 241.92578125 C81.16746094 242.76496094 80.18648438 243.60414063 79.17578125 244.46875 C78.63034668 244.93458496 78.08491211 245.40041992 77.52294922 245.88037109 C75.15274855 247.90593721 72.78508393 249.93431247 70.42480469 251.97143555 C66.848658 255.05520718 63.22930484 258.06932191 59.55078125 261.03125 C55.54538104 264.31163712 51.56960601 267.61928753 47.67578125 271.03125 C46.69609375 271.87816406 45.71640625 272.72507812 44.70703125 273.59765625 C39.45007005 279.56041317 38.72754181 285.86864338 38.84765625 293.4921875 C38.84952942 294.31957428 38.85140259 295.14696106 38.85333252 295.99942017 C38.86000768 297.73223964 38.8738306 299.46504523 38.89453125 301.19775391 C38.92594055 303.85723786 38.93553397 306.51612938 38.94140625 309.17578125 C38.95056749 310.86459061 38.96094045 312.55339393 38.97265625 314.2421875 C38.97690613 315.03797211 38.98115601 315.83375671 38.98553467 316.65365601 C38.94873523 320.69232286 38.94873523 320.69232286 40.17578125 324.46875 C45.61344426 324.1615374 48.30944168 320.95880043 51.98828125 317.34375 C53.24143139 316.14504238 54.49533131 314.94711808 55.75 313.75 C56.34603027 313.17636719 56.94206055 312.60273437 57.55615234 312.01171875 C59.42424809 310.23204358 61.34365975 308.52481436 63.30078125 306.84375 C67.19055758 303.48819188 70.96427639 300.00963431 74.73901367 296.52612305 C77.65096506 293.84490384 80.60125131 291.2241621 83.61328125 288.65625 C91.35330821 281.8978065 94.23483438 275.76433187 95.17578125 265.46875 C95.33160813 262.15487704 95.36075485 258.84841976 95.36328125 255.53125 C95.38165039 254.26764648 95.38165039 254.26764648 95.40039062 252.97851562 C95.41377002 247.18523753 94.60923448 242.08358062 93.17578125 236.46875 C88.6357773 236.46875 88.12666952 236.92636599 84.80078125 239.71875 Z M-39.82421875 316.46875 C-42.45723843 321.42133464 -42.12802234 326.38546849 -42.07421875 331.84375 C-42.06745117 332.82021484 -42.06068359 333.79667969 -42.05371094 334.80273438 C-42.05211316 352.49183238 -42.05211316 352.49183238 -33.16015625 367.14453125 C-32.18304688 368.01464844 -31.2059375 368.88476562 -30.19921875 369.78125 C-29.40862061 370.49063721 -29.40862061 370.49063721 -28.60205078 371.21435547 C-27.52624788 372.1787232 -26.44797719 373.14034549 -25.3671875 374.09912109 C-23.1318741 376.08331543 -20.91701288 378.09001512 -18.69921875 380.09375 C-17.07448342 381.5523782 -15.44948516 383.01071358 -13.82421875 384.46875 C-12.15729228 385.96846128 -10.49062726 387.46846321 -8.82421875 388.96875 C-8.00824219 389.70222656 -7.19226563 390.43570313 -6.3515625 391.19140625 C-4.59015859 392.77857546 -2.83263722 394.37005953 -1.078125 395.96484375 C-0.18996094 396.77050781 0.69820313 397.57617188 1.61328125 398.40625 C2.81791016 399.50259766 2.81791016 399.50259766 4.046875 400.62109375 C6.2387109 402.60202581 6.2387109 402.60202581 9.17578125 404.46875 C11.32853073 404.16034401 11.32853073 404.16034401 13.17578125 403.46875 C13.32516265 397.81294051 13.4334803 392.15830273 13.50537109 386.50097656 C13.53536806 384.58052544 13.57618046 382.66020927 13.62841797 380.74023438 C14.35362837 365.45826272 14.35362837 365.45826272 7.17578125 352.46875 C4.78661331 349.92932535 4.78661331 349.92932535 2.17578125 348.09375 C-2.22952083 344.7032194 -6.49873219 341.23134464 -10.69921875 337.59375 C-11.88243952 336.57508744 -13.06603493 335.55685988 -14.25 334.5390625 C-14.83861816 334.0327832 -15.42723633 333.52650391 -16.03369141 333.00488281 C-18.97504372 330.48143193 -21.92933439 327.97337796 -24.88671875 325.46875 C-25.41056152 325.02418457 -25.9344043 324.57961914 -26.47412109 324.12158203 C-27.91959379 322.89856165 -29.3717578 321.68346287 -30.82421875 320.46875 C-31.68917969 319.705625 -32.55414063 318.9425 -33.4453125 318.15625 C-35.88186328 316.0830336 -35.88186328 316.0830336 -39.82421875 316.46875 Z M85.7734375 317.91796875 C84.51853516 319.02591797 84.51853516 319.02591797 83.23828125 320.15625 C81.79775391 321.40341797 81.79775391 321.40341797 80.328125 322.67578125 C79.81749512 323.12904785 79.30686523 323.58231445 78.78076172 324.04931641 C76.56636086 326.00771717 74.31455173 327.92093594 72.06469727 329.83837891 C70.28488267 331.35731826 68.51105836 332.88301218 66.73828125 334.41015625 C63.82864135 336.91311508 60.90425603 339.3978209 57.9699707 341.87182617 C56.867284 342.80290857 55.7668123 343.73662128 54.66870117 344.6730957 C52.3880937 346.61714476 50.0990519 348.52797967 47.7265625 350.359375 C42.33167255 354.62742102 39.78809695 358.75449667 38.17578125 365.46875 C37.6110885 370.9347756 37.72389811 376.43418855 37.8190918 381.92138672 C37.86366304 384.4907587 37.88061575 387.05919314 37.89257812 389.62890625 C37.90598458 391.26303445 37.92090265 392.8971511 37.9375 394.53125 C37.94488693 395.29888672 37.95227386 396.06652344 37.95988464 396.85742188 C37.95708642 400.79237785 37.95708642 400.79237785 39.17578125 404.46875 C44.78951067 404.23260842 47.71357514 400.55785629 51.48828125 396.84375 C52.83383736 395.55255325 54.18018236 394.26217806 55.52734375 392.97265625 C56.16446289 392.35793457 56.80158203 391.74321289 57.45800781 391.10986328 C59.37857889 389.27500274 61.34813986 387.51155073 63.36328125 385.78125 C67.23500701 382.44937271 70.98598534 378.98962661 74.73925781 375.52587891 C77.65114245 372.84475788 80.60133908 370.22408728 83.61328125 367.65625 C90.3347655 361.80115249 93.96938131 356.43057813 95.17578125 347.46875 C95.34107006 344.21782938 95.36571106 340.97347486 95.36328125 337.71875 C95.36392578 336.83219727 95.36457031 335.94564453 95.36523438 335.03222656 C95.31597367 328.93957336 94.75164723 323.37824744 93.17578125 317.46875 C89.96778417 316.39941764 88.73112057 316.13374043 85.7734375 317.91796875 Z " fill="#2DCB3F" transform="translate(290.82421875,223.53125)"/>
<path d="M0 0 C7.08490137 6.7484675 12.73967307 14.17969054 18.046875 22.3515625 C18.74683594 23.42921875 19.44679688 24.506875 20.16796875 25.6171875 C44.80822923 66.15593964 47.16111756 120.66901578 39.046875 166.3515625 C38.88058594 167.30160156 38.71429687 168.25164062 38.54296875 169.23046875 C31.11435342 210.11536646 13.57386734 247.11395686 -14.953125 277.3515625 C-16.03400391 278.52912109 -16.03400391 278.52912109 -17.13671875 279.73046875 C-46.79170754 310.88570992 -88.06135201 325.99845008 -130.3828125 327.53515625 C-162.39314621 328.2700497 -194.36276134 320.59059891 -218.953125 299.3515625 C-220.07267578 298.44857422 -220.07267578 298.44857422 -221.21484375 297.52734375 C-243.19269071 279.23164916 -253.1525154 250.85813267 -256.953125 223.3515625 C-257.13746094 222.06765625 -257.32179688 220.78375 -257.51171875 219.4609375 C-259.76451195 198.24619149 -259.02211967 175.25222966 -254.953125 154.3515625 C-254.75444824 153.32595215 -254.55577148 152.3003418 -254.35107422 151.24365234 C-249.77364976 128.38396029 -242.44575137 107.14559447 -231.953125 86.3515625 C-231.19752364 84.84004016 -230.44230049 83.32832868 -229.6875 81.81640625 C-229.11515625 80.67300781 -228.5428125 79.52960938 -227.953125 78.3515625 C-229.04625 78.9909375 -230.139375 79.6303125 -231.265625 80.2890625 C-236.7421508 83.49231344 -241.68271345 84.06455322 -247.953125 83.3515625 C-253.16886168 80.69627837 -256.05961932 77.8699248 -258.0078125 72.37890625 C-261.69153425 58.96633635 -259.76734217 42.74451882 -253.515625 30.546875 C-234.726625 -1.34022597 -194.52377818 -19.97740564 -160.21875 -29.25 C-106.2972954 -43.00621061 -42.7321883 -38.32331173 0 0 Z M-173.84375 45.33984375 C-175.58881567 48.32350489 -177.30405936 51.31408516 -178.953125 54.3515625 C-179.38109375 55.11903809 -179.8090625 55.88651367 -180.25 56.67724609 C-191.48266869 76.90916481 -201.82607089 98.66808136 -206.953125 121.3515625 C-207.14487305 122.17994629 -207.33662109 123.00833008 -207.53417969 123.86181641 C-214.481471 155.15862713 -214.82809364 193.28625304 -197.515625 221.4140625 C-196.35959911 223.08215355 -195.17209081 224.72889619 -193.953125 226.3515625 C-193.30214844 227.22167969 -192.65117188 228.09179688 -191.98046875 228.98828125 C-190.03127746 231.50082263 -188.02209049 233.93707561 -185.953125 236.3515625 C-185.44652344 236.95484375 -184.93992187 237.558125 -184.41796875 238.1796875 C-174.54406415 248.98795136 -160.6425232 255.80085491 -146.953125 260.3515625 C-145.94403076 260.68824951 -145.94403076 260.68824951 -144.91455078 261.03173828 C-116.64934188 269.93422008 -84.95349207 264.56542412 -58.96069336 251.43286133 C-52.43726362 248.01598266 -46.52116442 244.18341794 -40.953125 239.3515625 C-40.16808594 238.70960938 -39.38304687 238.06765625 -38.57421875 237.40625 C-19.3563968 221.10568741 -8.20374206 198.65997483 -2.953125 174.3515625 C-2.7365625 173.35125 -2.52 172.3509375 -2.296875 171.3203125 C3.55415644 139.31172874 1.52910805 99.69670996 -17.15234375 71.984375 C-19.32213315 69.00801467 -21.57992931 66.16770054 -23.953125 63.3515625 C-24.6853125 62.46855469 -25.4175 61.58554688 -26.171875 60.67578125 C-43.4457931 40.63438683 -67.28381343 31.19503318 -92.953125 27.3515625 C-116.0789546 25.9987929 -156.2026655 26.78754621 -173.84375 45.33984375 Z " fill="#1B2532" transform="translate(1253.953125,97.6484375)"/>
<path d="M0 0 C23.59776543 21.70852727 36.67059418 49.19351514 43.09619141 80.31494141 C43.3461084 81.50748535 43.3461084 81.50748535 43.60107422 82.72412109 C49.0911448 110.606405 48.58368967 143.48317116 43.09619141 171.31494141 C42.92990234 172.22646973 42.76361328 173.13799805 42.59228516 174.07714844 C37.16094039 203.60254205 26.66828184 232.76522672 9.09619141 257.31494141 C8.35755859 258.35521484 7.61892578 259.39548828 6.85791016 260.46728516 C1.99288626 267.13043533 -3.22159494 273.33777315 -8.90380859 279.31494141 C-9.40509277 279.84877441 -9.90637695 280.38260742 -10.42285156 280.93261719 C-40.78313154 313.09000791 -81.57102259 329.93456798 -125.55615234 331.43994141 C-161.85583307 332.02015608 -195.36294436 322.3958292 -221.90380859 296.75244141 C-247.8405507 270.80326756 -254.13824295 233.70787507 -254.15484619 198.48898315 C-254.07215264 157.12011891 -242.87803104 118.33228934 -222.90380859 82.31494141 C-223.71785156 82.73066406 -223.71785156 82.73066406 -224.54833984 83.15478516 C-225.62148437 83.698125 -225.62148437 83.698125 -226.71630859 84.25244141 C-227.77785156 84.79191406 -227.77785156 84.79191406 -228.86083984 85.34228516 C-233.84267936 87.71413609 -238.47879324 87.89891342 -243.90380859 87.31494141 C-248.9142716 85.08806896 -250.88873581 82.19503259 -253.14208984 77.41259766 C-257.14867312 66.37908372 -256.18105079 51.06335607 -251.90380859 40.31494141 C-251.62537109 39.61498047 -251.34693359 38.91501953 -251.06005859 38.19384766 C-248.53386349 32.60790762 -244.81196848 27.9953724 -240.90380859 23.31494141 C-240.26830078 22.52087891 -239.63279297 21.72681641 -238.97802734 20.90869141 C-211.48828699 -11.80979429 -162.30909366 -27.25229509 -121.20068359 -31.02490234 C-79.45839192 -34.21233675 -32.54873532 -28.80884473 0 0 Z M-161.90380859 44.31494141 C-162.56703125 44.56824219 -163.23025391 44.82154297 -163.91357422 45.08251953 C-170.18594182 47.91587537 -172.6862571 53.98860914 -175.77880859 59.81494141 C-176.38595703 60.93046387 -176.99310547 62.04598633 -177.61865234 63.1953125 C-182.52140559 72.32031476 -186.97577389 81.59739452 -190.98828125 91.14550781 C-191.82716575 93.13332852 -192.69470082 95.10548216 -193.57177734 97.07666016 C-208.30226459 131.49828716 -213.35904961 175.18423673 -200.33349609 210.86962891 C-190.69751451 234.09076486 -173.95340429 251.65938459 -150.71630859 261.56494141 C-148.13406697 262.55434279 -145.53222541 263.45623485 -142.90380859 264.31494141 C-142.25943848 264.52666992 -141.61506836 264.73839844 -140.95117188 264.95654297 C-110.58424689 274.40270006 -77.84583137 267.56842139 -50.27880859 253.28369141 C-25.37243447 238.75497317 -7.79039574 214.11026169 -0.41943359 186.41650391 C7.76070406 153.0762459 7.38046674 113.25875713 -8.90380859 82.31494141 C-24.97772006 55.87958606 -47.9016146 40.7262674 -77.55615234 33.29541016 C-106.59385644 26.54630873 -135.12654014 32.81485369 -161.90380859 44.31494141 Z " fill="#1B2532" transform="translate(1597.90380859375,93.68505859375)"/>
<path d="M0 0 C41.68802688 -0.73378265 81.01712974 10.06912544 111.609375 39.25390625 C139.94830829 67.08120383 151.3217787 108.04855963 151.71496582 146.86076355 C151.73009058 149.30305224 151.73652003 151.74516572 151.73828125 154.1875 C151.73895599 155.02959015 151.73963074 155.8716803 151.74032593 156.73928833 C151.72218805 171.04465295 150.96702583 185.00884235 148.48828125 199.125 C148.32199219 200.07793945 148.15570312 201.03087891 147.984375 202.01269531 C142.48725352 232.25704332 131.37401812 261.03216915 113.48828125 286.125 C113.07223633 286.70926758 112.65619141 287.29353516 112.22753906 287.89550781 C85.80059175 324.50762277 48.11333668 347.77661219 4.48828125 358.125 C3.78670898 358.29370605 3.08513672 358.46241211 2.36230469 358.63623047 C-30.44354699 366.28983072 -75.8245544 368.52523512 -105.51171875 350.125 C-115.86290512 342.45277921 -122.11012612 333.82406896 -124.51171875 321.125 C-127.74582775 299.02902455 -123.70513994 276.91399745 -120.74047852 255.00518799 C-113.11434445 198.6307759 -106.74844483 142.00667428 -112.51171875 85.125 C-113.53688599 85.54833618 -113.53688599 85.54833618 -114.58276367 85.98022461 C-115.48099854 86.34639893 -116.3792334 86.71257324 -117.3046875 87.08984375 C-118.19438232 87.45456787 -119.08407715 87.81929199 -120.00073242 88.19506836 C-123.11539815 89.34856974 -125.23681016 89.81044598 -128.51171875 89.125 C-131.93520332 86.38621234 -133.80215479 84.42627429 -134.51171875 80.125 C-135.40357664 64.89481136 -133.59271947 51.90382714 -123.578125 39.78515625 C-96.72929322 10.96576801 -44.61912586 2.04949152 -7.2421875 0.25 C-4.82804199 0.16910717 -2.41397162 0.08592557 0 0 Z M-41.94921875 67.625 C-43.03404541 67.83858154 -44.11887207 68.05216309 -45.23657227 68.2722168 C-51.59363843 69.55933013 -51.59363843 69.55933013 -57.51171875 72.125 C-57.54612061 73.04571289 -57.58052246 73.96642578 -57.6159668 74.91503906 C-58.8377357 105.76044185 -62.13084788 136.20374109 -66.17123413 166.79598999 C-69.86049605 194.73144864 -72.74697251 222.41808441 -72.88671875 250.625 C-72.89466461 251.4702121 -72.90261047 252.31542419 -72.91079712 253.18624878 C-73.10937651 273.46022187 -73.10937651 273.46022187 -63.86328125 290.8046875 C-48.85304421 303.1192085 -26.89446377 301.22490612 -8.68457031 299.92285156 C-3.53369664 299.37089785 1.46202768 298.36223165 6.48828125 297.125 C7.29990723 296.93164062 8.1115332 296.73828125 8.94775391 296.5390625 C35.06024585 290.1622414 58.50938212 278.3670888 77.48828125 259.125 C78.21144531 258.40054688 78.93460938 257.67609375 79.6796875 256.9296875 C102.67652701 232.53773639 109.89934692 200.33837993 109.46484375 167.765625 C108.68033888 142.21531929 101.17013114 117.72945745 84.48828125 98.125 C83.69164062 97.10986328 83.69164062 97.10986328 82.87890625 96.07421875 C66.33798835 75.64372857 38.86691195 66.58639134 13.67578125 63.4375 C-5.15707246 61.94578882 -23.48362606 63.98765671 -41.94921875 67.625 Z " fill="#1B2532" transform="translate(1823.51171875,61.875)"/>
<path d="M0 0 C13.30468813 13.44899061 13.10202639 34.52868544 13.24609375 52.140625 C13.26167484 53.51178695 13.27788941 54.88294184 13.29469299 56.25408936 C13.3642477 62.00768717 13.42422147 67.76135946 13.47680664 73.51513672 C13.71374028 98.78780752 14.56198862 124.0166113 17.6875 149.125 C17.76859009 149.78335846 17.84968018 150.44171692 17.93322754 151.12002563 C24.48163533 203.58979855 35.73035781 268.05405187 78.4375 303.8125 C83.62144959 308.23348927 85.51292753 312.92329497 86.06640625 319.6328125 C85.84784376 327.42392235 81.85957999 333.90856217 76.6875 339.5 C75.800625 340.325 74.91375 341.15 74 342 C73.52046875 342.47308594 73.0409375 342.94617188 72.546875 343.43359375 C62.5304233 352.7936275 51.52990912 355.52358707 38.26953125 355.265625 C27.75565223 354.79721895 21.04537762 349.47554094 14 342 C-10.20689188 314.985845 -19.28354356 267.71146448 -24 233 C-24.46148438 233.66386719 -24.92296875 234.32773437 -25.3984375 235.01171875 C-30.82694391 242.36058613 -36.07487144 246.98364096 -45.25219727 248.55786133 C-51.69533789 249.31448259 -58.17885669 249.02827179 -64.65234375 248.9140625 C-66.10019791 248.89252906 -67.54805891 248.87145165 -68.9959259 248.85079956 C-72.84946916 248.79428015 -76.7028605 248.73057909 -80.55625916 248.66500854 C-83.73355511 248.61162504 -86.91090499 248.56194569 -90.08825874 248.51214218 C-100.05909358 248.35538386 -110.02960131 248.18227663 -120 248 C-121.24670471 247.97723999 -122.49340942 247.95447998 -123.77789307 247.93103027 C-130.76893842 247.80133806 -137.75952242 247.65715595 -144.75 247.5 C-145.59875702 247.48221497 -146.44751404 247.46442993 -147.32199097 247.44610596 C-149.64710978 247.39627113 -151.97196762 247.34003652 -154.296875 247.28125 C-155.55854492 247.25095703 -156.82021484 247.22066406 -158.12011719 247.18945312 C-161 247 -161 247 -163 246 C-163.06058594 247.0415625 -163.12117188 248.083125 -163.18359375 249.15625 C-163.24365601 250.18347168 -163.24365601 250.18347168 -163.30493164 251.23144531 C-163.3943744 252.7620202 -163.48339465 254.29261983 -163.57202148 255.82324219 C-163.79412438 259.62826675 -164.02515851 263.43200316 -164.2890625 267.234375 C-164.33490479 267.91048828 -164.38074707 268.58660156 -164.42797852 269.28320312 C-164.55441017 271.13172115 -164.68525744 272.97993566 -164.81640625 274.828125 C-165.37512863 285.39038394 -164.8406782 295.84380143 -164 306.375 C-162.03257323 331.49957163 -162.03257323 331.49957163 -169.0625 340.1875 C-177.68766577 349.26377277 -190.55032445 354.45074961 -203 355 C-204.423125 355.07734375 -204.423125 355.07734375 -205.875 355.15625 C-212.3386897 355.35016069 -217.22054272 354.99293323 -223 352 C-228.04711651 346.82347024 -228.26752935 342.35871543 -228.20507812 335.42871094 C-227.85217984 329.52858771 -226.54970836 323.87836018 -225.25 318.125 C-224.6987391 315.56678954 -224.14927741 313.00819075 -223.6015625 310.44921875 C-223.19405762 308.56468994 -223.19405762 308.56468994 -222.77832031 306.64208984 C-218.34661388 287.99251061 -218.34661388 287.99251061 -218 269 C-218.08636719 268.23171875 -218.17273438 267.4634375 -218.26171875 266.671875 C-219.79580182 259.65191089 -225.13336863 255.72941619 -230.3828125 251.28515625 C-233.83701095 248.269177 -233.83701095 248.269177 -234.23828125 245.14453125 C-234.74762757 229.14033383 -227.56586232 212.12208122 -217.28515625 200.05859375 C-212.57762085 195.81778835 -206.52141346 193.08068212 -200.14428711 192.93457031 C-196.6894898 192.75008696 -194.17203671 192.40686769 -191 191 C-188.36057016 187.24876257 -187.02524129 183.23689848 -185.71127319 178.89056396 C-184.82249672 175.95813257 -183.82011779 173.06852182 -182.82374573 170.17123413 C-182.3084268 168.66925241 -181.79874119 167.16532681 -181.29454041 165.65957642 C-178.79777173 158.23155057 -175.83658217 151.04706775 -172.6875 143.875 C-172.28762375 142.95998718 -172.28762375 142.95998718 -171.87966919 142.02648926 C-159.43675575 113.65733786 -145.16141607 86.16193354 -127 61 C-126.53271484 60.34338379 -126.06542969 59.68676758 -125.58398438 59.01025391 C-118.57128996 49.18631359 -110.9497583 40.23147899 -102.53222656 31.58349609 C-101.23920607 30.2472101 -99.97198812 28.88602808 -98.7109375 27.51953125 C-80.06565233 7.75840855 -54.59608966 -6.57644501 -27.19140625 -7.95263672 C-17.11244046 -8.17047533 -7.87848618 -6.65162998 0 0 Z M-96.7890625 90.2890625 C-119.67119384 118.34595146 -136.37401258 153.27199014 -146 188 C-142.68752211 188.03065799 -139.37508199 188.04731462 -136.0625 188.0625 C-135.17498047 188.07087891 -134.28746094 188.07925781 -133.37304688 188.08789062 C-126.22386007 188.11196196 -119.10972766 187.8470986 -111.96875 187.53125 C-95.92984935 186.83773647 -79.88499802 186.66761038 -63.83404541 186.46777344 C-59.77670055 186.41652059 -55.71940829 186.36139008 -51.66210938 186.30664062 C-43.77478469 186.20075268 -35.88741451 186.09897041 -28 186 C-28.05534912 185.01273926 -28.11069824 184.02547852 -28.16772461 183.00830078 C-28.44042396 178.04799686 -28.69239154 173.08673821 -28.9375 168.125 C-28.98390625 167.18692505 -29.0303125 166.2488501 -29.078125 165.28234863 C-29.72963756 151.74479989 -30.10811062 138.21489191 -30.28515625 124.6640625 C-30.29993672 123.55432508 -30.29993672 123.55432508 -30.31501579 122.42216873 C-30.41268874 114.98567816 -30.49618598 107.54922548 -30.55245876 100.11230278 C-30.57532794 97.29871707 -30.60546774 94.4852357 -30.63688469 91.67173386 C-30.65569195 89.72950472 -30.66401252 87.78718287 -30.67201233 85.84487915 C-30.70233999 73.36163951 -30.70233999 73.36163951 -37 63 C-57.7870156 49.91017199 -84.43049255 76.14586151 -96.7890625 90.2890625 Z " fill="#2DCA3F" transform="translate(1222,477)"/>
<path d="M0 0 C1.54010742 0.0460437 1.54010742 0.0460437 3.11132812 0.09301758 C22.86485168 0.89289617 22.86485168 0.89289617 29.625 5.625 C34.68996915 11.8910372 34.42208964 17.99710837 33.85253906 25.66992188 C32.33216664 38.73337936 22.49813518 51.35804176 12.48046875 59.33203125 C3.29318094 65.42761226 -7.62280358 63.84624735 -18.1875 63.1875 C-54.06339096 60.96263659 -90.58348418 59.60428809 -126.375 63.625 C-126.3843457 64.29289551 -126.39369141 64.96079102 -126.40332031 65.64892578 C-126.70172626 83.15248221 -127.82390598 100.50338256 -129.375 117.9375 C-129.46463013 118.94613098 -129.55426025 119.95476196 -129.64660645 120.99395752 C-130.47148696 130.2148763 -131.32906979 139.42625205 -132.375 148.625 C-131.49279785 148.56965088 -130.6105957 148.51430176 -129.70166016 148.45727539 C-99.4022651 146.58040813 -69.16535711 145.54295404 -38.80633545 145.39483643 C-36.40741928 145.38168691 -34.00852409 145.36379733 -31.60968018 145.34100342 C-28.22533341 145.31109625 -24.84149556 145.30134834 -21.45703125 145.296875 C-20.44178879 145.28457855 -19.42654633 145.2722821 -18.38053894 145.25961304 C-12.59952669 145.27752937 -8.46222094 145.79876614 -3.375 148.625 C0.19078967 153.00020205 0.12372547 156.85965747 -0.0234375 162.3046875 C-1.51771035 176.41726439 -8.55668642 190.9812928 -19.33984375 200.328125 C-24.73808507 204.29976977 -28.94538672 204.78724715 -35.4375 204.75 C-36.31849365 204.74734131 -37.1994873 204.74468262 -38.10717773 204.74194336 C-46.73354461 204.68442939 -55.35140317 204.40208263 -63.97286987 204.1211853 C-80.31174552 203.59458412 -96.65527711 203.32953126 -113 203.0625 C-113.67774097 203.0513982 -114.35548195 203.0402964 -115.05376053 203.02885818 C-123.49411904 202.89075848 -131.93452967 202.75609184 -140.375 202.625 C-140.86259928 206.24289427 -141.34391401 209.86159944 -141.82421875 213.48046875 C-142.02863586 214.99634583 -142.02863586 214.99634583 -142.23718262 216.54284668 C-144.96050189 237.15163762 -147.41443082 260.75151737 -135.76171875 279.17578125 C-126.82701718 290.5593946 -112.52208455 294.00602696 -98.8984375 296.1796875 C-62.75162716 300.47410343 -27.61987598 293.37147772 4.8125 277.625 C9.44365199 275.51015505 12.55701911 274.85191817 17.625 275.625 C24.64535768 278.71395738 28.05366795 285.6592572 30.7734375 292.5234375 C33.3123696 301.77074067 32.31314633 311.2969885 27.625 319.625 C15.67374633 338.71871888 -5.23352589 348.37510427 -26.47021484 353.35009766 C-29.78632069 354.06278477 -33.10726319 354.73165327 -36.4375 355.375 C-37.46407715 355.57343506 -38.4906543 355.77187012 -39.54833984 355.97631836 C-55.43120503 358.88846774 -70.8795171 359.97491671 -87.01171875 359.94067383 C-90.10713122 359.93751822 -93.20157996 359.96105741 -96.296875 359.98632812 C-123.02672989 360.07037843 -155.12555573 357.46550154 -175.46362305 337.97216797 C-191.08914999 321.88213548 -193.5274869 298.68639848 -193.44677734 277.32202148 C-193.33933479 271.78799895 -192.9163614 266.31951932 -192.375 260.8125 C-192.25326416 259.55131348 -192.13152832 258.29012695 -192.00610352 256.99072266 C-190.28301923 239.98752072 -187.71216597 223.07617968 -185.24414062 206.16870117 C-182.61401886 188.05781288 -180.34414291 169.99452856 -179.75 151.6875 C-179.71132812 150.70716797 -179.67265625 149.72683594 -179.6328125 148.71679688 C-179.18324803 136.40996947 -179.32942592 124.11790273 -179.75 111.8125 C-179.79181396 110.57798096 -179.83362793 109.34346191 -179.87670898 108.0715332 C-180.33194107 95.89076768 -181.2654807 83.76188142 -182.375 71.625 C-183.18324219 71.79257812 -183.99148438 71.96015625 -184.82421875 72.1328125 C-186.42716797 72.43832031 -186.42716797 72.43832031 -188.0625 72.75 C-189.64611328 73.06324219 -189.64611328 73.06324219 -191.26171875 73.3828125 C-194.68115482 73.64881631 -196.39781758 73.28304555 -199.375 71.625 C-204.25223863 64.30914206 -201.31204195 52.17456829 -199.79199219 43.82836914 C-197.1035482 30.54848751 -191.38242569 19.73755941 -180.375 11.625 C-167.28215168 4.33929062 -150.39215572 4.77678503 -135.8125 3.625 C-134.72686768 3.53851196 -133.64123535 3.45202393 -132.52270508 3.36291504 C-88.44414543 -0.10752214 -44.1999781 -1.41163213 0 0 Z " fill="#2DCA3F" transform="translate(1841.375,473.375)"/>
<path d="M0 0 C0.67675781 0.49371094 1.35351562 0.98742187 2.05078125 1.49609375 C8.73521983 6.77780218 12.84136053 13.53549497 14 22 C14.91715611 30.8767609 13.18971021 39.53127944 7.8125 46.75 C0.80095774 54.96435913 -7.50922655 62.17789646 -18.5 64 C-26.91961854 64.40168249 -34.55996647 60.42130562 -41.875 56.6875 C-69.38432906 43.26944521 -101.81884649 37.45434004 -131.578125 46.03125 C-142.71724928 49.93786231 -153.51509156 56.690969 -159.24609375 67.30859375 C-162.79247153 75.17443512 -163.29440001 82.11975834 -160.3125 90.25 C-153.75274301 104.79949561 -138.46016811 110.93588945 -124.35107422 116.41772461 C-120.62614486 117.75022584 -116.88416178 119.01851752 -113.125 120.25 C-112.10033127 120.59084122 -112.10033127 120.59084122 -111.05496216 120.93856812 C-96.9741277 125.6084491 -82.68423117 129.46219019 -68.31103516 133.12011719 C-55.02541693 136.529047 -41.98653352 140.56193792 -29.75 146.875 C-29.09580078 147.20814209 -28.44160156 147.54128418 -27.76757812 147.88452148 C-10.66053816 156.78226849 1.75806792 167.25320253 8.93359375 185.51171875 C17.72605012 214.27239105 12.72771144 245.80871897 -0.76318359 272.23461914 C-17.13339747 302.81503501 -46.86296843 326.90614222 -80 337 C-92.97538831 340.42668308 -106.04601085 343.12552183 -119.49609375 343.203125 C-120.28790543 343.20882507 -121.0797171 343.21452515 -121.89552307 343.22039795 C-123.56534517 343.22978871 -125.2351853 343.23635815 -126.9050293 343.24023438 C-129.39992727 343.24985511 -131.89396943 343.28089961 -134.38867188 343.3125 C-164.2276133 343.50967199 -194.33249772 334.99621878 -216.3125 314.125 C-226.87812912 303.15687072 -230.51473286 292.00181685 -230.421875 277.04589844 C-230.11597091 266.87458747 -227.09183095 258.45833384 -220 251 C-214.87778778 247.21931955 -210.31174596 246.49098823 -204 247 C-198.30453431 248.50283717 -193.86935774 250.90317525 -189.375 254.6875 C-162.96960959 276.88453131 -127.84019093 283.34789243 -94.34472656 280.79785156 C-78.02055668 278.91456683 -59.89044854 272.13208046 -48.49609375 259.9453125 C-41.77270671 251.2031539 -38.95950844 240.90038775 -40 230 C-41.68559974 220.65129554 -45.77472251 213.96748879 -53.5625 208.5 C-72.33358164 197.40342225 -94.99450555 192.67817889 -115.86328125 187.1875 C-144.89036563 179.54779003 -172.78769954 171.08811771 -195 150 C-195.62519531 149.484375 -196.25039063 148.96875 -196.89453125 148.4375 C-206.15062573 140.41415851 -211.79488174 125.89758913 -213 114 C-214.76169815 82.71600802 -207.0070253 53.69145587 -186.140625 29.640625 C-175.98956385 18.27960251 -165.15527812 8.69664198 -152 1 C-151.39639648 0.64663574 -150.79279297 0.29327148 -150.17089844 -0.07080078 C-108.16224166 -24.29452596 -40.85069927 -30.03929142 0 0 Z " fill="#2DCA3F" transform="translate(950,490)"/>
<path d="M0 0 C9.16604477 7.46073411 11.26315357 19.20814377 12.56640625 30.4296875 C13.21923029 37.52224476 13.24412658 44.63310333 13.25 51.75 C13.25067474 52.49132172 13.25134949 53.23264343 13.25204468 53.99642944 C13.13266265 137.5560397 -15.58471935 230.92897556 -66 298 C-66.42216797 298.56638184 -66.84433594 299.13276367 -67.27929688 299.71630859 C-76.52408581 312.05080331 -86.787036 324.49624984 -99 334 C-99.50015625 334.39606445 -100.0003125 334.79212891 -100.515625 335.20019531 C-122.56201079 352.53138506 -145.65007496 361.70973414 -174 360 C-182.85580861 358.70188147 -190.6844986 354.232107 -196.3125 347.25 C-207.07021585 331.49975304 -206.7628046 311.29201292 -208 293 C-210.51590329 256.17690384 -214.66869833 219.99895819 -223 184 C-223.15404297 183.33397766 -223.30808594 182.66795532 -223.46679688 181.98175049 C-232.16158542 144.64122618 -243.78264868 104.52533172 -268 74 C-268.39912598 73.49404297 -268.79825195 72.98808594 -269.20947266 72.46679688 C-275.25961272 64.86196256 -281.80370168 58.12088851 -289.0546875 51.65625 C-300.48449109 41.34820432 -300.48449109 41.34820432 -301.38671875 35.48828125 C-301.76909012 26.03447873 -298.87564722 19.91443817 -292.8125 12.8125 C-283.68091687 3.18772171 -273.49944167 -1.52502792 -260.25 -2.1875 C-247.56697045 -1.94637777 -237.58893092 2.75457021 -228.44140625 11.4296875 C-175.26885607 67.40974833 -169.29230488 174.33939813 -164.37792969 264.99462891 C-164.14799279 277.3326774 -164.14799279 277.3326774 -159 288 C-150.63952238 292.84907702 -142.38113347 291.30998079 -133.32421875 289.02734375 C-104.23142266 280.03626811 -84.55975706 251.81774824 -70.94921875 226.171875 C-45.1426873 176.45955881 -30.9549047 110.76705336 -48 56 C-49.68920326 51.21521554 -51.57613022 46.51748689 -53.51171875 41.828125 C-56.11051611 35.40197958 -57.02232577 29.30752454 -54.9375 22.5625 C-49.36145417 11.18229737 -37.50594718 3.82055673 -25.9375 -0.5 C-17.01317119 -3.47019264 -8.50970341 -4.74579613 0 0 Z " fill="#2DCA3F" transform="translate(1587,475)"/>
<path d="M0 0 C2.73201028 -0.00196407 5.46400154 -0.00708761 8.19600677 -0.01256943 C12.5561792 -0.01949346 16.91616795 -0.01357499 21.27631569 0.00225067 C22.88484384 0.00713533 24.49338413 0.00913054 26.10191917 0.00782776 C34.36427811 0.00624533 42.52172388 0.27235376 50.73903656 1.1808815 C51.44036115 1.25504886 52.14168573 1.32921621 52.86426258 1.40563107 C58.13771888 2.05483928 62.70596712 3.39099191 66.44142914 7.31052017 C70.84498497 14.93032498 69.47882993 23.09489013 67.44142914 31.31052017 C62.96983673 43.38079832 54.0610471 55.96399146 42.34670258 61.87106705 C38.19948754 63.61539212 34.50634351 63.68977025 30.05861664 63.56052017 C28.88225143 63.54299698 28.88225143 63.54299698 27.68212128 63.52511978 C20.36120334 63.38481145 13.05999406 62.94739722 5.75572968 62.45520401 C-19.39638714 60.79298143 -44.53533653 60.77274933 -69.70700836 62.08786392 C-76.32727478 62.4224196 -82.93202144 62.38474594 -89.55857086 62.31052017 C-89.53826813 63.17362808 -89.51796539 64.03673599 -89.49704742 64.92599869 C-89.36072667 75.46929649 -90.1975197 85.77032193 -91.30857086 96.24802017 C-91.48887225 97.99628985 -91.66896363 99.7445812 -91.84885406 101.49289322 C-93.03347506 112.88317802 -94.33494698 124.25863439 -95.74607086 135.62302017 C-95.83038361 136.30605209 -95.91469635 136.98908401 -96.00156403 137.69281387 C-97.37873382 148.77100906 -97.37873382 148.77100906 -98.55857086 152.31052017 C-97.71600739 152.25517105 -96.87344391 152.19982193 -96.00534821 152.14279556 C-92.70625405 151.92843251 -89.40692891 151.71847028 -86.10739899 151.51095963 C-84.711788 151.42240165 -83.31626985 151.33236097 -81.92087555 151.24045181 C-56.73672001 149.58554585 -31.51320217 149.10403593 -6.28122711 149.0702858 C-2.69755711 149.06466354 0.8857587 149.04023431 4.46931458 149.01231384 C7.27977842 148.99371245 10.09015271 148.98848463 12.90067291 148.98694992 C14.85827301 148.98251282 16.815825 148.96393906 18.77333832 148.94498062 C19.95738251 148.94798172 21.1414267 148.95098282 22.36135101 148.95407486 C23.91106598 148.94860641 23.91106598 148.94860641 25.49208832 148.9430275 C29.0219126 149.38284936 31.40314785 150.48379809 34.44142914 152.31052017 C38.39604207 157.97879871 37.88837568 163.68931018 36.77736664 170.20505142 C33.36555981 184.84393303 26.98906962 197.10851801 14.75392914 206.43552017 C9.6542377 209.23148999 4.52308479 208.69715895 -1.13434601 208.42609024 C-22.8351358 207.39154852 -44.53200716 207.03826537 -66.25254059 206.77829361 C-70.47762853 206.72699769 -74.70266688 206.67189083 -78.92771149 206.6171608 C-87.13795538 206.51134121 -95.34824224 206.40954704 -103.55857086 206.31052017 C-103.62423248 207.58781998 -103.6898941 208.86511978 -103.75754547 210.18112564 C-103.84613193 211.88832155 -103.93475703 213.59551545 -104.02341461 215.30270767 C-104.06639679 216.14084 -104.10937897 216.97897232 -104.15366364 217.84250259 C-104.42474702 223.04478181 -104.75004425 228.2394251 -105.12107086 233.43552017 C-106.5467377 256.54511976 -107.2920748 283.92953513 -92.55857086 303.31052017 C-91.01539834 305.03633233 -89.45209263 306.74431374 -87.87107086 308.43552017 C-82.09335616 314.68012092 -79.82778554 320.16663911 -80.15622711 328.73239517 C-81.40022346 336.70363392 -85.86225685 342.48512689 -91.98435211 347.49411392 C-106.06791802 357.43168319 -122.73012052 360.42982291 -139.61716461 357.84177017 C-146.09986742 356.18409274 -151.04292675 353.0484992 -154.80466461 347.45895767 C-159.55899403 338.71656439 -159.93471226 329.39577391 -159.90622711 319.63864517 C-159.90317062 318.41760086 -159.90011414 317.19655655 -159.89696503 315.93851089 C-159.7259258 302.51591202 -158.08694582 289.35189486 -156.26820374 276.06841278 C-155.80000011 272.61384084 -155.35485826 269.15629464 -154.90769196 265.69894791 C-154.17015347 260.01398588 -153.42297275 254.33039317 -152.66648102 248.64792252 C-144.79142896 189.47507744 -138.56299467 131.85204503 -146.55857086 72.31052017 C-147.45060211 72.42911392 -148.34263336 72.54770767 -149.26169586 72.66989517 C-151.01739899 72.86325455 -151.01739899 72.86325455 -152.80857086 73.06052017 C-154.54880524 73.2693483 -154.54880524 73.2693483 -156.32419586 73.48239517 C-159.55857086 73.31052017 -159.55857086 73.31052017 -161.95310211 71.81052017 C-164.13007382 68.42058856 -164.1177628 65.45949479 -163.99607086 61.56052017 C-163.98213287 60.81262222 -163.96819489 60.06472427 -163.95383453 59.29416275 C-163.43959595 43.35276671 -160.05782701 28.40274502 -148.93747711 16.46677017 C-138.9714339 7.43350933 -126.01917317 5.7998876 -113.05857086 4.74802017 C-112.39565033 4.69181503 -111.7327298 4.63560989 -111.04972076 4.57770157 C-106.42040121 4.18645285 -101.78881295 3.83581697 -97.15512848 3.50058365 C-94.47815952 3.3046342 -91.80209445 3.098507 -89.12595367 2.89157486 C-59.41896039 0.63535156 -29.77933002 0.01644995 0 0 Z " fill="#1B2532" transform="translate(902.5585708618164,64.68947982788086)"/>
<path d="M0 0 C22.1656808 14.70683696 37.01127088 38.03473227 48.8671875 61.359375 C49.39755615 62.4014209 49.9279248 63.4434668 50.47436523 64.51708984 C51.49172907 66.53781344 52.49338441 68.56654624 53.47680664 70.60400391 C56.16788323 75.99746612 58.12563395 79.49076357 63.66015625 82.1171875 C67.45268831 82.19458611 69.06720664 81.61398312 71.97265625 79.1796875 C73.52505087 77.47595881 74.9982419 75.71453184 76.48046875 73.94921875 C86.97213586 61.77346485 100.54364113 50.58351887 116.66015625 47.1171875 C129.48007712 46.21164314 141.22963498 46.7375512 151.78515625 55.0546875 C156.04719751 59.20068308 158.18534147 63.82723916 158.71875 69.796875 C158.22706149 89.26774011 143.84846538 104.92540033 131.2578125 118.33203125 C128.35366281 121.44580378 125.56630899 124.64650243 122.8046875 127.88671875 C120.95064083 129.81506238 119.0674685 131.51650592 117.0390625 133.25390625 C111.09441773 138.38763699 105.71019372 144.08816879 100.2578125 149.734375 C82.52362528 167.77007081 62.09242991 174.86458432 37.15979004 175.25762939 C35.26735816 175.26942258 33.37488921 175.27611029 31.48242188 175.27832031 C30.43680588 175.28328522 29.39118988 175.28825012 28.31388855 175.29336548 C24.89805414 175.30782161 21.48226605 175.31475895 18.06640625 175.3203125 C16.88983963 175.32313988 15.71327301 175.32596725 14.50105286 175.32888031 C8.28211243 175.3438007 2.06319481 175.35307697 -4.15576172 175.35742188 C-10.55076981 175.36291526 -16.94556596 175.38698235 -23.34050751 175.41539383 C-28.28725792 175.43407724 -33.23395765 175.43922871 -38.18074036 175.44075775 C-40.53767564 175.44376874 -42.89461037 175.45174423 -45.25151062 175.46494293 C-73.5971857 175.61243627 -73.5971857 175.61243627 -86.27734375 168.1171875 C-86.94991211 167.72837402 -87.62248047 167.33956055 -88.31542969 166.93896484 C-94.73030065 163.10428407 -100.32996644 158.51794315 -105.83691406 153.48925781 C-107.25893912 152.1910478 -108.70119678 150.9151014 -110.14453125 149.640625 C-117.54319125 143.02077131 -124.52576448 136.0008836 -131.49072266 128.9296875 C-135.11783625 125.26234854 -138.75694156 121.69934378 -142.6796875 118.34765625 C-150.22122991 111.86016677 -155.60699663 103.64550933 -156.72265625 93.70703125 C-157.19080045 83.70299318 -155.3239106 75.72426271 -148.55859375 68.11328125 C-142.24365679 62.36613468 -135.65461476 61.28032061 -127.26171875 61.53515625 C-117.2691137 62.35134297 -107.6682439 66.68463801 -98.33984375 70.1171875 C-95.49251413 71.13793912 -92.63753659 72.13319827 -89.77734375 73.1171875 C-88.68292969 73.5090625 -87.58851563 73.9009375 -86.4609375 74.3046875 C-82.30494056 75.38659909 -78.43699319 75.84157924 -74.31274414 74.41699219 C-65.62963656 68.69630604 -63.08867177 51.19869277 -60.31347656 41.61865234 C-56.19110613 27.4861313 -51.33899898 12.46006856 -40.33984375 2.1171875 C-39.41171875 1.1890625 -38.48359375 0.2609375 -37.52734375 -0.6953125 C-25.69759386 -8.81376831 -11.98953173 -6.75901087 0 0 Z " fill="#2DCB3F" transform="translate(315.33984375,14.8828125)"/>
<path d="M0 0 C0.66 0.33 1.32 0.66 2 1 C-6.25 9.25 -14.5 17.5 -23 26 C-23 21.72038214 -20.49007077 19.87968696 -17.6875 16.9375 C-16.8845752 16.08055542 -16.8845752 16.08055542 -16.06542969 15.20629883 C-10.97300336 9.83802028 -5.57524105 4.8618736 0 0 Z " fill="#25B636" transform="translate(784,500)"/>
<path d="M0 0 C0.66 0.33 1.32 0.66 2 1 C-2.29 5.29 -6.58 9.58 -11 14 C-11 10.30159372 -10.17133056 9.68584567 -7.75 7 C-7.14671875 6.319375 -6.5434375 5.63875 -5.921875 4.9375 C-4.06233388 3.06284066 -2.15205789 1.52358081 0 0 Z " fill="#23B131" transform="translate(1545,483)"/>
<path d="M0 0 C0.66 0.33 1.32 0.66 2 1 C-0.97 3.97 -3.94 6.94 -7 10 C-7 6.04435836 -5.59478606 4.89133304 -3 2 C-2.01 1.34 -1.02 0.68 0 0 Z " fill="#1EB033" transform="translate(733,739)"/>
<path d="M0 0 C0.99 0.33 1.98 0.66 3 1 C1.02 2.98 -0.96 4.96 -3 7 C-3.66 6.67 -4.32 6.34 -5 6 C-3.35 4.02 -1.7 2.04 0 0 Z " fill="#27BB36" transform="translate(1007,675)"/>
</svg>
